/* XPM */
static char *_8d8810a032a4e75d3ddc46471a5534bum8cXNmmb4owZtb2[] = {
/* columns rows colors chars-per-pixel */
"64 64 253 2 ",
"   c #0D0000",
".  c #060704",
"X  c #130000",
"o  c #1B0402",
"O  c #1B0A05",
"+  c #171603",
"@  c #191719",
"#  c #0F1110",
"$  c #260805",
"%  c #360602",
"&  c #261608",
"*  c #381A09",
"=  c #2A1917",
"-  c #371816",
";  c #2D0F15",
":  c #23210B",
">  c #372618",
",  c #2E2414",
"<  c #131A22",
"1  c #2C1B21",
"2  c #1D2B23",
"3  c #282428",
"4  c #3A2825",
"5  c #3B3726",
"6  c #242D30",
"7  c #4A0502",
"8  c #590906",
"9  c #481704",
"0  c #57140B",
"q  c #461714",
"w  c #500E1A",
"e  c #660707",
"r  c #770B0C",
"t  c #681A19",
"y  c #791718",
"u  c #6F0F0E",
"i  c #45220C",
"p  c #452718",
"a  c #552919",
"s  c #57321C",
"d  c #682C1E",
"f  c #500B25",
"g  c #791931",
"h  c #482B23",
"j  c #473526",
"k  c #58372A",
"l  c #583D34",
"z  c #4D322F",
"x  c #64392C",
"c  c #663B34",
"v  c #762735",
"b  c #3C412D",
"n  c #4A4734",
"m  c #584837",
"M  c #484A34",
"N  c #674639",
"B  c #764A39",
"V  c #6F4B34",
"C  c #142B56",
"Z  c #2E3355",
"A  c #1A347A",
"S  c #18306A",
"D  c #253A70",
"F  c #5D2F4C",
"G  c #2A487B",
"H  c #344770",
"J  c #5A4B44",
"K  c #534D4D",
"L  c #675449",
"P  c #795549",
"I  c #6E514D",
"U  c #726550",
"Y  c #485274",
"T  c #706C72",
"R  c #830D16",
"E  c #881617",
"W  c #95151A",
"Q  c #90040D",
"!  c #BD1C1C",
"~  c #AB0E1A",
"^  c #B9221C",
"/  c #861925",
"(  c #961828",
")  c #A61C26",
"_  c #B91B25",
"`  c #B3152C",
"'  c #962527",
"]  c #8A2A2F",
"[  c #A6252A",
"{  c #B9232B",
"}  c #B92936",
"|  c #AA3137",
" . c #C31C1D",
".. c #CC1A1E",
"X. c #C9151D",
"o. c #D5161E",
"O. c #CB0C1C",
"+. c #C4211D",
"@. c #D70C25",
"#. c #CC1623",
"$. c #C31C22",
"%. c #CA1A23",
"&. c #CB1B2A",
"*. c #C7182B",
"=. c #D41423",
"-. c #D31B23",
";. c #D71729",
":. c #DB1B32",
">. c #C7132E",
",. c #E4122B",
"<. c #CB2223",
"1. c #C8232A",
"2. c #D4212A",
"3. c #C72734",
"4. c #D42735",
"5. c #E62D3B",
"6. c #86563A",
"7. c #9C3D4C",
"8. c #BC3543",
"9. c #D32E42",
"0. c #875B48",
"q. c #8A5850",
"w. c #AA555A",
"e. c #886759",
"r. c #956A56",
"t. c #99715B",
"y. c #8F674F",
"u. c #A67259",
"i. c #877564",
"p. c #9B7867",
"a. c #93726E",
"s. c #A67D67",
"d. c #AF786C",
"f. c #C77078",
"g. c #9C8673",
"h. c #A9846C",
"j. c #B6896E",
"k. c #AB8974",
"l. c #B58C75",
"z. c #B5937B",
"x. c #BB947C",
"c. c #B99177",
"v. c #AF917D",
"b. c #C5957B",
"n. c #C08F7E",
"m. c #0F3885",
"M. c #223F8D",
"N. c #17478D",
"B. c #335390",
"V. c #1B56AB",
"C. c #1958B0",
"Z. c #285BAB",
"A. c #2B5AB1",
"S. c #1C63B9",
"D. c #3A67A9",
"F. c #2965B8",
"G. c #3568B7",
"H. c #336AB4",
"J. c #476EB1",
"K. c #5B6387",
"L. c #2D6FC7",
"P. c #DE7F83",
"I. c #7E8FA2",
"U. c #4E81D2",
"Y. c #95888F",
"T. c #BA9886",
"R. c #B79D95",
"E. c #AE9288",
"W. c #BBA693",
"Q. c #AC9DA6",
"!. c #B8ABB0",
"~. c #9B90A1",
"^. c #C49C85",
"/. c #C79A87",
"(. c #D0948F",
"). c #C8A38B",
"_. c #D5A68C",
"`. c #CAA995",
"'. c #D7AA95",
"]. c #DCB39B",
"[. c #D8B59B",
"{. c #E9B79A",
"}. c #F6BB9A",
"|. c #E4AD93",
" X c #D8ACA3",
".X c #DCBBA4",
"XX c #D9B6A6",
"oX c #D9B5B2",
"OX c #C9B3A9",
"+X c #E5BDA3",
"@X c #ECBDA3",
"#X c #E7B8A8",
"$X c #F2BDA3",
"%X c #F6BDAA",
"&X c #ECBCB3",
"*X c #F2AFB5",
"=X c #E78FA8",
"-X c #ACCBA1",
";X c #F9C29D",
":X c #EFC19F",
">X c #D9C2B4",
",X c #EDC3A4",
"<X c #E6C2AB",
"1X c #EBC5AB",
"2X c #ECC9AD",
"3X c #E6C3A5",
"4X c #F2C4A4",
"5X c #F5C8A6",
"6X c #F3C5AC",
"7X c #FBC4AB",
"8X c #F3CAAC",
"9X c #FACBAB",
"0X c #FEC5A4",
"qX c #E9C9B7",
"wX c #F4CBB4",
"eX c #FCCCB3",
"rX c #F8C7B7",
"tX c #FBD3B8",
"yX c #E8D1B7",
"uX c #92BAEC",
"iX c #E4B8C5",
"pX c #C9BACC",
"aX c #D9CBCC",
"sX c #E6CAC8",
"dX c #F9CAC5",
"fX c #FEDAC3",
"gX c #FAD7C6",
"hX c #EAD8D4",
"jX c #FDD6D8",
"kX c #EED0CC",
"lX c #F8E5D8",
"zX c #F7E7D4",
"xX c #DCDCE1",
"cX c #F7DCE4",
"vX c #EADFE3",
"bX c #DEF1EF",
"nX c #E9EAE6",
"mX c #FAEAE7",
"MX c #EBF0EA",
"NX c #E9FAE9",
"BX c #FDF3EC",
"VX c #FEFBED",
"CX c #F7F6EB",
"ZX c #FEEDF7",
"AX c #ECFCF7",
"SX c #F5F5F5",
"DX c #FEF4F4",
"FX c #F5FBF5",
"GX c #FBFDF6",
"HX c #FFF5FC",
"JX c #F5FEFD",
"KX c #FDFEFD",
"LX c #F7F7F9",
/* pixels */
"KXKXKXKXKXJXKXKXLXKXKXKXKXJXJXJXJXKXKXKXKXKXKXKXDXBXBXVXVXGXVXGXGXBXBXBXBXzX-X-XNXGXZXZXMXFXNXGXKXKXKXKXKXKXKXKXKXKXKXKXKXKXKXKX",
"KXKXKXKXKXKXKXKXKXKXKXLXJXJXJXAXJXKXKXKXKXKXKXDXDXDXBXmXBXBXBXmXjXdX#X/.u.d . . K mXZXcXKXJXNXGXKXKXKXKXKXKXKXKXKXKXKXKXKXKXKXKX",
"KXKXKXKXJXJXKXKXKXKXKXKXKXKXKXJXJXKXKXKXDXZXDXZXjX*X(.f.d.w.7.] / / / ' ' y i : + U iXZXKXAXAXJXJXKXKXKXKXKXKXKXKXKXKXKXKXKXKXKX",
"KXKXKXKXJXJXKXKXKXGXKXKXKXKXKXKXKXBXmXmXZXjX(.w.y R R Q ) ` { ` 3.3.} } { W 9 $ & X I iXKXbXAXJXJXKXKXKXKXKXKXKXKXKXKXKXKXKXKXKX",
"KXKXKXKXKXKXKXKXKXKXKXKXKXDXDXKXDXBXjX(.q.y y ( ) { *.*.>.;.;.;.@.@.>.&.4.{ u % o ; f v aXKXJXAXKXKXKXKXKXKXKXKXKXKXKXKXKXKXKXKX",
"KXKXKXKXKXKXKXKXKXKXKXGXKXHXHXDXjXP.] e r [ ) ~ ` *.:.:.:.;.,.,.@.@.O.#.:.$.r % % - f f a.mXKXnXKXKXKXKXKXKXKXKXKXKXKXKXKXKXKXKX",
"KXKXKXKXKXKXKXKXKXKXKXDXDXDXjX*X) ~ Q ~ 3.9.4.*.*.&.&.=.#.O.O.O.;.=.#.#.2.1.R 7 q o f v v =XZXBXKXKXKXKXKXKXKXKXKXKXKXKXKXKXKXKX",
"KXKXKXKXKXKXKXKXKXKXKXDXDXcX(.] ~ @.:.:.=.O.O.#.%.#.X.X.%.%.%.%.X.%. . . .! E 8 $ - % f g =XjXHXKXKXKXKXKXKXKXKXKXKXKXKXKXKXKXKX",
"KXKXKXKXKXKXKXKXJXLXKXDXZX*Xe | =.@.@.@.@.=.=.#.X. . .! ^ ^ ^ ^ <. .+.+.+.{ W 7 $ = $ f g 7.ZXDXDXKXKXSXKXKXKXKXKXKXKXKXKXKXKXKX",
"KXKXKXKXKXKXKXKXJXKXKXDXcXf./ } =.@.@.@.=.o...X. .! ! ^ ^ ^ ^ ^ <.X...+. .{ W 7 $ 2 O q g g XXGXGXKXKXKXKXKXGXKXKXKXKXKXKXKXKXKX",
"KXKXKXKXKXKXKXKXJXKXDXDX*X/ | _ %.......X.X. . . .! !  . . .$. .-.o.o...X.1.) 8 & 2 # - g t e.VXCXKXKXKXKXKXSXKXKXKXKXKXKXKXKXKX",
"KXKXKXKXKXKXKXKXJXKXDXDX(.r } *.%. . . . . .$. ._ _ $.%.%.%.%.-.;.o.o.o...1.) e & 2 # = g / k zXBXKXDXKXKXKXSXKXKXKXKXKXKXKXKXKX",
"JXKXKXKXKXKXKXKXJXKXDXDXw.( ` 4.$. . . ._ _ _ _ $.$.%.#.=.=.=.;.,.o.=.o.#.2._ r & 2 # $ ( | 0 T.GXKXGXGXKXKXLXKXKXKXKXKXKXKXKXKX",
"JXKXKXKXKXKXKXKXJXFXGXBX] 8.~ :.%. .%.$.$._ $.$.$.%.%.%.;.;.;.;.;.=.-.-.#.2.*.R - 2 + % ` 9.r B BXKXKXKXKXKXGXKXKXKXKXKXKXKXKXKX",
"JXJXKXKXKXKXKXKXJXJXGXjX] } >.;.=.=.=.#.#.%.%.%.%.%.%.&.&.;.;.&.&.$.<.<.$.3.3.W q & - 7 O.,._ u qXLXKXKXKXKXKXKXKXKXKXKXKXKXKXKX",
"JXKXKXKXKXKXKXKXJXKXGX&X] ) :.@.=.=.=.#.#.%.%.%.%.%.%.%.%.=.&.&.<.<.<.<.$.3.4.~ 8 % 8 r @.,.5.Q T.hXKXHXLXKXKXKXKXKXKXKXKXKXKXKX",
"KXKXKXKXKXKXJXJXJXKXmX(.y { ;.o.#. . . . . . . .%.%.........o.......<.<.<.<.1.1.Q Q Q ~ ;.@.=.3.] ZXjXHXKXZXKXKXJXJXJXKXKXKXKXKX",
"KXKXKXKXKXKXJXJXJXGXBX/.R { ;.o.X. . . . .<.<.<.......-.2.2.2.2.o.o...#.%.%.$.$.%.~ ~ X.;.;.:.9.g *XZXmXHXnXKXKXJXJXJXJXKXKXKXKX",
"KXKXKXKXKXKXJXJXKXBXBXw.R 1.;.o.-.%.%.X.X.%.%.<.X...-.-.-.......=.=.=.-.:.2.4.4.4.*.! _ *.*.&.} v q.HXHXHXKXHXKXKXKXKXKXKXKXKXKX",
"KXKXKXKXKXKXKXKXKXBXBX] E { =.o.-.%.#.#.#.#.%.#. .%.%.<.<.<.<.%.2.2.2.2.1.3.3.} } ) W W W W W / v h oXjXQ.KXKXKXKXKXKXKXKXKXKXKX",
"KXKXKXKXKXKXKXKXKXBXjXt W _ -.o.=.=.#.*.*.%.*.&.&.1.1.3.3.3.3.3.{ { [ ) W E E y y u 0 8 8 7 7 9 - ; I J O Q.DXKXKXKXKXKXKXKXKXKX",
"KXKXKXKXKXKXKXKXGXVX&Xu [ _ -...#.*.*.*.&.1.1.3.3.3.{ { ) W W W r r u e e 0 0 0 % % % $ $ $ O O &   = O   $ Q.KXKXKXKXKXKXKXJXJX",
"KXKXKXKXKXKXKXKXBXBX(.e | ) 1.%._ _ _ { { _ ) ) [ ' W R r e e e 8 0 0 0 q a a j & & & & + + + + :   & = 4   z cXKXKXKXKXKXKXJXJX",
"KXKXKXKXKXKXKXGXBXBXd.u | ) 3._ { [ [ [ ' W R r e e 8 8 8 0 t d x x x k k k k m > > , , : : : : + > =   O 4 o R.HXKXKXKXKXKXKXJX",
"KXKXKXKXKXKXKXKXBXDXr.t ' | W [ ' y ' e 8 y t t 0 a a q q a k k k N N x x N B N T.p.P N c k p * & , , & = $ X J HXKXHXKXKXSXKXJX",
"KXKXKXKXKXKXKXKXDXDXq.t t y e y u 7 7 8 0 9 % a x N N k j j 5 j m k c P P x c 0.dXrX&X&X#X X(.T.N j O O &   X 4 aXHXKXKXGXJXKXJX",
"KXKXKXKXJXJXKXKXDXmXk w 7 7 7 7 % 9 0./.^.).T.k m m m m n 5 5 5 n j l L P B P p.&XrXdXgXdXrXrXrXqXW.> & = = 4   Y.SXKXLXJXKXKXFX",
"KXKXKXKXJXJXKXKXDXsX$ - $ % % % 9 ^.wX2X`.).<X`.U L m m M M b M 5 M m m U g.T.).#X&XrX6X&X%X6XrXqXgX`.m X O =   Y.SXKXSXKXKXJXJX",
"HXKXKXKXJXJXJXKXKXQ.X ; $ ; = $ V '.h.p.[.h.i.`.OXE.i.L J m n n M M L U g.OXyXqXyXwXqX2X2X2XwXwX.X<XgXU O = O @ !.KXJXJXKXFXSXKX",
"HXHXKXKXJXJXJXKXKXa.  ; 1 @ @ # v.^.).1XfXfXXXp.gX>XE.e.L L J m U L i.W.yXyXyXfX2X2X1X1X2X2X3X3XfX{.<XN o , = T MXKXAXJXKXSXSXKX",
"HXHXKXKXJXJXJXJXLXK # @ 3 < < @ v.b.eX].t.l./.p.qXrX Xp.P P P I e.r.T.wXfXrX%XeX7X7X7X7X9X9X5X4X@XrX1Xk X 4 T NXJXJXAXJXKXSXKXKX",
"HXKXKXKXJXJXJXJXnX3 @ # 6 < < 3 T.'.j.y.+X'.y.rX#XgXrXT.q.0.q.P 0.h.'.%X%X7X%X$X7X7X7X$X$X4X5X8X6XfX/.N i.hXFXJXJXJXAXKXJXGXKXSX",
"KXKXKXKXKXKXKXKXxX3 @ @ @ @ @ = ^.'.@X9X4X/.c.@X#XwXfXs.P t.P t.p.).8X8X,X5X7X5X{.7X7XeX6X{.wXtXqXgXp.OXBXGXKXKXJXJXJXJXKXKXKXKX",
"KXKXKXKXKXKXKXKXMX3 # @ 3 @ @ - ].|.b._.@Xj.u.6X@X2XtXs.0.s.e.k.k.'.8X8X,X5X5X4XtX4X_.].wXtXqX[..XqXa.hXCXGXFXJXJXJXJXJXKXKXKXKX",
"GXGXKXKXKXKXKXKXxX6 @ @ = = = - h.9Xb.6.).,X_.+X1X1X<Xs.r.k.h.).).].8X8X,X5X5X:Xb.u.6.0.h.`.<XtXqXqXg.VXCXKXMXJXJXJXJXKXKXKXKXKX",
"GXKXKXKXKXKXKXKXxX3 = 3 = O > N y.7XfX'.j.0.s.zX1X<X].h.p.z.v.`.].3X8X,X,X5X4X{._.j.s.0.s x p.qXkX>XR.GXCXGXFXKXJXJXJXKXKXKXKXKX",
"KXKXKXKXKXKXKXKXSX#   4 = X h E.d.b.{.eX{.x./.+XwX1X'.k.k.T.T.`.1X2X2X,X,X4X:X{.tX,XtX+Xs.x k p.>XOX>XVXGXCXKXKXJXJXJXKXKXKXKXKX",
"KXKXKXKXKXKXKXKXnX3 O X $ p a.'.r.d.{.tX,XeXfX8XeX<X/.k.T.).).`.2X2X1X,X,X,X:X{.b.u._.6X1XT.s * v.W.lXBXGXCXKXFXJXJXJXKXKXKXKXKX",
"JXJXKXKXKXKXKXKXaX4 ; o h p. X'.tXj.u.{.fX,X'.].wX].l.h.T.).`..X2X1X1X,X,X,X4X4Xj.6.0.y.^..XB * i.>XGXBXGXKXFXFXJXJXKXKXKXKXKXKX",
"KXKXKXKXKXKXKXKXmXO X l E.(.'.#Xb._.j.u.l.b.^.,X1X'.p.p.x.).[.3X2X1X2X8X4X,X4X9X5Xh.6.9 B wX`.k.i.lXKXBXmXKXMXKXJXJXKXKXKXKXKXKX",
"AXKXKXJXSXGXKXDXmXo p d.#X/.&X#X7X{.|./.j.^.@XeX^.h.t.h.`.#X.X[.1X2X2X,X,X5X5X:X4X|.r.^.^.wX^.p.aXvXGXKXKXFXGXKXJXJXJXJXKXKXKXKX",
"JXKXKXKXKXKXKXKXhXh a.T. X'.%XeX7X4X7X4X{.+X6X@Xj.k.k.z.).[..X.X<X1X2X,X4X9X9X4X5X5X).@X_.2X'.kXmXDXKXKXKXFXGXKXJXJXJXKXKXKXKXKX",
"KXKXKXKXKXKXKXKXOXL XX)._.%X%XeX7X$X7XeX8XeX6X'.s.l.x.x.T.'..X.X+X3X1X,X4X9X9X5X4X5X4XwX[.<X).VXKXKXKXKXJXLXGXKXJXJXKXKXKXKXKXKX",
"KXKXKXKXKXDXDXKXR.e.XX).].eX7X|.7X@X$X$X+X6X4X_.j.c.z.l.^..X.X`.[.3X1X,X,X5X5X4X4X{.5X@X].wXk.qXKXKXJXKXJXKXJXGXGXJXJXKXKXKXKXKX",
"KXKXKXKXKXDXHXKXE.E.`.#XeX%XeX|.7X6X7X$X@X6X6X'.l.x.x.l.T.[..X`.[.3X2X5X4X5X5X4X5X,X9X'.[.fXz.`.DXJXJXJXKXKXGXGXGXGXKXKXKXKXKXKX",
"KXKXKXKXKXKXKXGXa.`.'.rXeX|.7X0X$X6XeX7X4XeX@Xx.h.x.^.x.l.T.[..X'.+X8X8X5X9X9X5X9X,XeX'.).wX XOXKXJXJXKXKXKXGXFXGXGXKXKXKXKXKXKX",
"HXKXKXHXKXKXDXhXa. X#X6X7X|.}.0X}.$X6X7X6X8X'.t.s.l.x.x.z.z.).[.).[.3X8X8X9X9X9X5X'.{.{._.#XqX`.KXJXKXKXKXKXGXGXGXGXKXKXKXKXKXKX",
"KXKXKXSXKXKXmX`.T.XX6X{.7XtX|.9X7X4X$X@X4X6X_.0.l.s.s.l.^.).T.^.z.).].3X,X5X9X9X9Xb._.wX+X<XtXE.SXJXJXJXJXJXKXGXKXGXKXKXKXKXKXKX",
"DXGXKXKXxXvXBXp._.}.0X}.$XrXqX<X4X0X|.9XfX].d.0.e.r.p.h.l.x.x.c.z.z.).3X8X6X7X7XeXr._.'.^.<XzXE.nXSXKXKXKXGXJXGXGXGXGXGXJXKXKXKX",
"KXKXKXI.6 K I E.$X}.}.;X}.+X>XqX4X;X}.4XeX).0.P 0.e.t.s.s.h.l.c.W.h.).<X3XwXtX{.eX_.n.h.s.).W.`.MXSXGXKXJXGXGXJXJXJXGXGXJXKXKXKX",
"JXAXI.H C C T cXrX{.}.0X0X}.+X2X4X;X0X{.6X^.x I N P e.e.e.a.h.v.k.g.`.tX+XwXgX%X%X#X/.h.e.v.i.R.CXFXGXJXGXFXGXJXJXJXJXJXJXKXJXKX",
"AXuXC G J.D K.!.hX&X{.%X0X0X4X4X:X{.eX+XwX`.s N l N L I I U a.g.g.k.`.2XrX1X]./.y.x a * * E.gXVXGXGXGXFXFXFXGXJXJXJXJXJXJXKXJXKX",
"uXB.B.Z.D.B.C K.pXsXrX$X|.}.;X;X;X{.eX+XtX.Xk h z z z l J L T i.z.`.).[.tX].r.B B N e.L g.zXVXlXKXJXGXGXFXGXGXJXGXGXGXJXJXJXJXKX",
"Z.N.G.G.V.G.J.B.Y ~.sXdX%X}.}.}.5X{.9X+XwX<XP * h h 4 4 z K L U p.].2X+X+Xc.q.r.`. XR.i.hXGXVXGXKXJXGXFXJXJXJXGXGXGXGXJXJXJXJXKX",
"V.L.V.L.C.V.U.N.S Y Y.OXsXtX7X{.5X,X5X,X6XwXk.q p p > > 5 z K L P j.wXwX^.l.`.XXI P a.W.GXGXnXGXKXJXFXGXKXKXJXGXGXGXGXJXJXJXJXKX",
"A.V.L.S.L.L.V.G.J.G Z T !.kXqX#X1X1X7X7X@XtX].s 9 i p > > 5 n J P B c.[.h.'.lXoXqXg.!.GXmXKXSXJXJXGXFXGXKXKXJXFXGXGXGXJXJXJXJXKX",
"m.N.A.G.Z.V.F.L.G.J.B.H Y ~.aXmX.X1X8X@X@XtX$Xd.9 9 % p > , m , s V 0.P h.qXqXsXE.OXvXGXKXKXJXKXKXKXKXKXKXKXKXKXKXKXKXKXKXKXKXKX",
"m.M.B.A.D.G.F.F.Z.Z.H.D.B.H K.Q.mXXX#XfX+X@XeX{.0.9 a i * > & m N i N N B lXqXE.oXaXmXKXKXJXJXKXJXGXGXGXGXGXGXGXGXGXFXFXGXGXGXGX",
"m.A M.B.J.J.G.Z.F.S.F.G.D.B.G Y T aXhXoX&XtX%X{._.6.% * p * * > k * N N k sXW.OXmXBXGXKXKXKXKXKXJXJXKXKXKXKXKXJXJXJXJXJXKXKXKXJX",
"A S S D B.D.D.Z.F.L.L.S.F.J.D.G Y K Q.cXsXqXrX_._._.a % i > j & > p h h m U L mXGXKXKXKXJXJXJXJXJXKXKXKXKXKXKXKXKXKXKXKXKXKXKXKX",
"A A S S D G B.D.V.L.L.S.C.F.G.J.B.Y Z T pXsXoXgX/.'./.a $ p & j p j - - J & U GXGXGXFXLXGXJXFXFXGXGXGXGXJXGXJXGXGXJXGXGXGXGXJXJX",
"m.M.D S C S B.J.H.S.S.L.L.Z.A.J.J.B.B.D Z Y.sXdX&X#X/.r.k * o = = = h > 4 = aXKXKXGXKXKXKXJXJXJXKXKXKXKXKXKXKXKXKXKXKXKXKXKXKXKX",
"m.m.A S C C D G H.V.C.L.L.F.Z.Z.A.H.B.B.Y Z K iXkX`.q.).R.L L 4 - $ 4 = 4 T DXDXKXKXKXKXJXGXGXJXJXJXJXJXJXJXJXJXJXJXJXJXJXJXJXJX",
"m.m.S S C C C C N.F.L.S.C.A.G.G.Z.G.D.B.H Z F I oXP a. XkXsXR.Y.g.L 4 4 Y.GXGXnXCXCXCXMXnXnXnXMXMXMXMXMXMXMXMXMXMXMXMXMXMXMXMXMX"
};
