/* XPM */
static char *_c9990d0044f4bfee57711becfff4e5a2TqMfcjPdzN0GsGB[] = {
/* columns rows colors chars-per-pixel */
"60 64 256 2 ",
"   c black",
".  c #010101",
"X  c #020202",
"o  c gray1",
"O  c #040404",
"+  c gray2",
"@  c #060606",
"#  c #070707",
"$  c gray3",
"%  c #090909",
"&  c gray4",
"*  c #0B0B0B",
"=  c #0C0C0C",
"-  c gray5",
";  c #0E0E0E",
":  c gray6",
">  c #101010",
",  c #111111",
"<  c gray7",
"1  c #131313",
"2  c gray8",
"3  c #151515",
"4  c #161616",
"5  c gray9",
"6  c #181818",
"7  c #191919",
"8  c gray10",
"9  c #1B1B1B",
"0  c gray11",
"q  c #1D1D1D",
"w  c #1E1E1E",
"e  c gray12",
"r  c #202020",
"t  c gray13",
"y  c #222222",
"u  c #232323",
"i  c gray14",
"p  c #252525",
"a  c gray15",
"s  c #272727",
"d  c #282828",
"f  c gray16",
"g  c #2A2A2A",
"h  c gray17",
"j  c #2C2C2C",
"k  c #2D2D2D",
"l  c gray18",
"z  c #2F2F2F",
"x  c gray19",
"c  c #313131",
"v  c #323232",
"b  c gray20",
"n  c #343434",
"m  c #353535",
"M  c gray21",
"N  c #373737",
"B  c gray22",
"V  c #393939",
"C  c #3A3A3A",
"Z  c gray23",
"A  c #3C3C3C",
"S  c gray24",
"D  c #3E3E3E",
"F  c #3F3F3F",
"G  c gray25",
"H  c #414141",
"J  c gray26",
"K  c #434343",
"L  c #444444",
"P  c gray27",
"I  c #464646",
"U  c gray28",
"Y  c #484848",
"T  c #494949",
"R  c gray29",
"E  c #4B4B4B",
"W  c #4C4C4C",
"Q  c gray30",
"!  c #4E4E4E",
"~  c gray31",
"^  c #505050",
"/  c #515151",
"(  c gray32",
")  c #535353",
"_  c gray33",
"`  c #555555",
"'  c #565656",
"]  c gray34",
"[  c #585858",
"{  c gray35",
"}  c #5A5A5A",
"|  c #5B5B5B",
" . c gray36",
".. c #5D5D5D",
"X. c gray37",
"o. c #5F5F5F",
"O. c #606060",
"+. c gray38",
"@. c #626262",
"#. c gray39",
"$. c #646464",
"%. c #656565",
"&. c gray40",
"*. c #676767",
"=. c #686868",
"-. c DimGray",
";. c #6A6A6A",
":. c gray42",
">. c #6C6C6C",
",. c #6D6D6D",
"<. c gray43",
"1. c #6F6F6F",
"2. c gray44",
"3. c #717171",
"4. c #727272",
"5. c gray45",
"6. c #747474",
"7. c gray46",
"8. c #767676",
"9. c #777777",
"0. c gray47",
"q. c #797979",
"w. c gray48",
"e. c #7B7B7B",
"r. c #7C7C7C",
"t. c gray49",
"y. c #7E7E7E",
"u. c gray50",
"i. c #808080",
"p. c #818181",
"a. c gray51",
"s. c #838383",
"d. c #848484",
"f. c gray52",
"g. c #868686",
"h. c gray53",
"j. c #888888",
"k. c #898989",
"l. c gray54",
"z. c #8B8B8B",
"x. c gray55",
"c. c #8D8D8D",
"v. c #8E8E8E",
"b. c gray56",
"n. c #909090",
"m. c gray57",
"M. c #929292",
"N. c #939393",
"B. c gray58",
"V. c #959595",
"C. c gray59",
"Z. c #979797",
"A. c #989898",
"S. c gray60",
"D. c #9A9A9A",
"F. c #9B9B9B",
"G. c gray61",
"H. c #9D9D9D",
"J. c gray62",
"K. c #9F9F9F",
"L. c #A0A0A0",
"P. c gray63",
"I. c #A2A2A2",
"U. c gray64",
"Y. c #A4A4A4",
"T. c #A5A5A5",
"R. c gray65",
"E. c #A7A7A7",
"W. c gray66",
"Q. c #A9A9A9",
"!. c #AAAAAA",
"~. c gray67",
"^. c #ACACAC",
"/. c gray68",
"(. c #AEAEAE",
"). c #AFAFAF",
"_. c gray69",
"`. c #B1B1B1",
"'. c #B2B2B2",
"]. c gray70",
"[. c #B4B4B4",
"{. c gray71",
"}. c #B6B6B6",
"|. c #B7B7B7",
" X c gray72",
".X c #B9B9B9",
"XX c gray73",
"oX c #BBBBBB",
"OX c #BCBCBC",
"+X c gray74",
"@X c gray",
"#X c gray75",
"$X c #C0C0C0",
"%X c #C1C1C1",
"&X c gray76",
"*X c #C3C3C3",
"=X c gray77",
"-X c #C5C5C5",
";X c #C6C6C6",
":X c gray78",
">X c #C8C8C8",
",X c gray79",
"<X c #CACACA",
"1X c #CBCBCB",
"2X c gray80",
"3X c #CDCDCD",
"4X c #CECECE",
"5X c gray81",
"6X c #D0D0D0",
"7X c gray82",
"8X c #D2D2D2",
"9X c LightGray",
"0X c gray83",
"qX c #D5D5D5",
"wX c gray84",
"eX c #D7D7D7",
"rX c #D8D8D8",
"tX c gray85",
"yX c #DADADA",
"uX c gray86",
"iX c gainsboro",
"pX c #DDDDDD",
"aX c gray87",
"sX c #DFDFDF",
"dX c gray88",
"fX c #E1E1E1",
"gX c #E2E2E2",
"hX c gray89",
"jX c #E4E4E4",
"kX c gray90",
"lX c #E6E6E6",
"zX c #E7E7E7",
"xX c gray91",
"cX c #E9E9E9",
"vX c #EAEAEA",
"bX c gray92",
"nX c #ECECEC",
"mX c gray93",
"MX c #EEEEEE",
"NX c #EFEFEF",
"BX c gray94",
"VX c #F1F1F1",
"CX c gray95",
"ZX c #F3F3F3",
"AX c #F4F4F4",
"SX c gray96",
"DX c #F6F6F6",
"FX c gray97",
"GX c #F8F8F8",
"HX c #F9F9F9",
"JX c gray98",
"KX c #FBFBFB",
"LX c gray99",
"PX c #FDFDFD",
"IX c #FEFEFE",
"UX c white",
/* pixels */
"FXv.q.].+XJ.b.0.!.Z.OX~.e.z.UXUXb.5.Q.oXR.C.<.].V.{.oX7.t.UXUXx.=.}.#XI.M.p.(.m.-XY.h.a.UXUXa.e.'..XC.H.6.`.R.|.(.7.d.KX",
"E.,.c.lXHXlX7.JX .hXUXjXs.<.z.M.5.a.fXUX9X:.UX..eXUXnX4.k.l.l.e.n.kXJX8X3.SX<.gXUXhXy.=.V.i.g.=.pXKXlX6.UX@.wXIXmXy.,.H.",
"t.}.(.{ =X4.{.UXA.7.oX<.P.G.>.h.D.{.{ #Xy.].BX(.u.@X} L.J.,.y.P.'.' ;Xh.[.UXM.5.,X! /.).,.e.Y. X} 8X1.(.UXI.6.4X..H.L.9.",
"C.C.cXtXk.[.N.yX}.+Xt.6XKXB.).I.p.UX*Xf.+XH.7XZ.*Xu.cXLXk.W.@Xb.JX0Xf.OXx.:Xx.dXy.2XGXa.`.(.t.IXwX2.1XV.6Xv.iX&.=XUXc.d.",
"MX*.LXzXi.xXz.>.1.GXg.wXUX7.FXLX' UXSX7.fXd.k.r.UX>.rXZXq.PXUX| PXNXp.jXe.V.t.cX7.VXSX4.UXZX%.BXDXq.dX5.G.s.DXd.AXMX1.UX",
"kXe.m.' [.%.&XUX`.0.T.&.a.k.BXcXC.6.:.%X%.XXSXoX8.XX&.F.p.BXaXa.L.T T.r.XXGX%Xq.^.;.k.1.mXgXe./.^  X>.6XnX Xo.XX/ i.n.MX",
"{ qXyX*XJX:X<.UX>.5XDX.XgX+X( #.0XiX!.FX=X0.UX>.@XSX[.1X=X:.` cX3X>XUXT.i.UX7.).UXG.jX2X#.| xX+X:XJXXXf.UX$.-XUXOXgX X} ",
"kXm.a. .VXdX8.OX0.pXvX+.p.m.mXCXa.B.,.aXZX4._.8.xXNXX.M.d.DXBXw.k.$.zXxXe.[.4.JXdX%.g.r.PXmXi.B.] SXzX,.OXi.VXiXX.x.j.nX",
"xX-.IX3X| l.d.o.s.H.} 2XNX2.UXgX;.MX=X:.n.a.X.d.H.=.9XmX4.IXiX:.HX@X| I.>.>.g.m.@.=XFX;.HXmX*.GX3X( S.k.^ g.G.O.>XvX0.UX",
"p.U.CXNX$Xs.N.xXj.1.%XUXUX1. X~.q.UXJX].9.u.AXa.O.$XGXUX6.[.}.y.UXLX#XX.Y.9Xc.9.&XUXUX0.!.{.8.IXAX*X{ N.cXH.$.|.UXLX5.U.",
"$X!.7.o.s.3.iXUXbX6.q.$...OXi.Z.].@.] h.5.UXAXBXa.w.1.>.}.r.A.].] 4.d.;.UXZXAX=.f.-.} %XU.p.}.*.,.n.&.LXIXeXq.N.' r.R.z.",
"N.g.pXAX*X%.OXUX`.+.>XhXgXZ.Z.I.F.fXSX'.1.Q.UX.X@.^.VXrXg.].z.v.aXxX[.;.'.UXH.q.+XnX4Xt.j.I.F.hXcX^.r.W.GX=X$.(.xXiXH.c.",
"$Xu.LXUX@.M.<.@.6.0.r.UXHX:.FX>X:.NXJX1.V.t.t.#.j.g.JXIX<.BXyX=.JXUX:.d.4.:.g.5.r.LXUXz.lX5X-.LXJX<.s.i.t.w.u.r.UXUX| FX",
"UX_ G.+.}.&Xb.G.s.lX~.+.S.2.PXJX9.Q.o.[.mX>.n.C.9XE...M.*.UXmXy.G.o.H.gXi.v.c.gXT. .f.X.UXLX,.K.%.W.hXk.F.t.rX/.} n.g.ZX",
"%.9X8XE.UXiX#.DX,.rXFXW.:X,X$.g.3X X XUX%X0.UX^ fXKX^.4X6X:.p.$X1X|.UX5X=.UX~ fXUXI.aX-Xy.,.NX`.`.UXyXX.AX*.sXUX@XOX;X;.",
"~.U.P.1.dX6.:XUXT.0.BX>.~.n.&X^.}.T.p.rX7.OXKX).0.nX:.R.k.:XY.].Q.$.iXi.#XUXE.s.fX>.!.k.OX{.C.}.8.hX;.$XIX/.e.dX%.!.H.|.",
"KXX.7X`.2.].K.*XN.>X<.Y.4X0.UXUX@.qXE.9.1Xx.,XG.|.k.V.9X2.FXUX| 3X^.q.}.N.XXL.-X3.T.8X,.IXUX*.8X.X%.@XU.*Xh.7X3.Y.hX-.PX",
"oX;.HXUXz.CXq.u.n.DXv.UXUXg.=X'.,.UXIXz.eXd.g.e.ZXv.UXIXp.&X2X6.UXUXs.zXz.f.q.KXS.IXCXi.uX#Xd.FXIXm.SX;.a.N.ZXm.IXBXi.}.",
"9.~.lX*.N.,.=XUXT.j.d.e.9XP.n.F.~.1X-.D.>.-XUX'.l.t.*.yXY.f.v.Y.tX` H.O.OXUX).q.a.7.jXS.y.K.U.lX-.l...<XUXU.-.B.&.rXXX1.",
"h.k.2.K.UX8Xj.SX,.:XKX/.r.k.4.} <.b.'.mX7Xi.xX0. XUX.X4.d.-.5.u.k.*XlXkXs.FX,.*XUX_.p.#.0.0.t.5.{.UX+Xc.BX5.iXBX[.d.7.3.",
"xXu.0.CXnXT.s.~.k.oXNX4Xq.g.jXUXf.b.OXCX+Xp.E.v. XvXsXp.z.iXDXd.2.8XBX}.t.K.m.'.lX2Xp.g.mXyXN.q.6X7X2X7.I.f.{.kXpXe.i.fX",
"AXP.d.@.e.,.7X_ nX7.<.6.v.l.FXUXZ.2.d.%.;.<X .tX-.6.7.f.g.UXUXc.x.:.9.$.tXO.jX<.&.s.k.z.UXUXv.z.u.8.>.tX! cX0.<.e.y.S.HX",
",X8.y.AXUX4X,.wX .eXUXPXl.w.@X@X2.m.NXUXnX| zX@.kXJXLX0.t..X(.g.y.DXUX0X+.6X6.9XUXIXe.-.<X|.q.0.KXKXtX` jX} 7XUXSXs.5.oX",
"9.z.v.-.UXQ.W.UXV.m.IXt.2.K.| 8.x.y.t.KXD.).FXx.H.AXq.z.h.O.f.f.s.w.DX~.).CXm.A.UX7.h.V.| 8.b.g.,.UXY.`.UXh.L.UXr.a.h.5.",
"v.A.UXL.6.x.).UXK.W.*.n.UXM.n.T.Z.UXK.,.d._.UX/.l.q.B.PXG.D.b.T.UXF.8.w. XAX].b.6.S.UXv.C.B.J.UXU.-.l.).IX^.S.8.F.HXJ.c.",
"7X>.UXUXc.UX#.;.h.SXZ.UXUX-.DX5X*.MXUXn.VX2.;.8.UXR.SXUX%.bXGX/ PXLXS.UXn.;.y.PXk.SXUXs.VXeXX.PXHXJ.BXa.1.r.NXb.KXPX1.kX",
"UX{ I.t.j.h.$XJXC.M.4.0.R.4.UXUX>.S.3.k.a.@XUXI.b.=.s.W.r.GXnX6.Q.h.6.e._.UXI.n.u.v.c.#.UXUX7.Q.p.u.p.^.SXW.g.d.r.P.p.AX",
",.rXwXL.UXs._.UXB.I.UXe.-X_.,.t.3X;XT.gXc.R.UXz.K.GXZ. X/.l.0.7X.Xv.LXH.[.ZXM.G.PXM.1X{.d.7.#X2Xx.UXD.E.IXS.|.BXJ.OXOXs.",
"K.#XA.u.UXnX} VX%.kXAXm.|.`..X}.L.(.p.UXJX] hX5.JXUXj.'.C..X!.R.@Xz.UXmX| ZX .VXUXt.'.P.oX(.[.H.b.PXBX#.AXY bXUXw.W.G.E.",
"UX .yXC. .>Xf.o.u.%X,.M.).' UXKX<.,Xf.1.*Xs.*.d.~.<.i.|.7.UXHX=.;Xt.t.{.h.$.j.-X-.m.[.X.UXHXO.>X0.a.Y.g.4.v.*X*.x.1X8.UX",
"F.k.SXUXv.w.q.[.r.:.!.UXUX6.,X].0.ZXUXA.3.q.!.r.t.U.UXPXf.XXoXl.UXUXF.y.:. Xv._ Q.UXLXq.=X%X;.UXUXC.7.w.P.5.6.Q.UXNX5.).",
"~.S.b.Y.F.:.aXLXtX1.A.N.B.E.h.J.L.G.S.Z.>.yXPXwX,.H.K.d.G.T.Y.P.b.D.L.+.iXUX,X0.C.m.C.!.y.U./.z.S.B.1.zXMXrX9.C.L.u..XM.",
"`.D.b.W.K.>.pXIX6X1.P.H.S.R.h.P.T.m.E.!.X.rXUX3X,.m.R.n.(.M.Z.L.S.S.H.-.hXUX&Xe.P.G.G.G.h.J./.N.E.m.-.NXAX4X<.J.U.m.[.h.",
"M.j.UXUXB.2.:.Q.y.>.Q.UXUX3.1X Xq.IXUXC.4.0.P.5.7.].UXDX>.4XOX0.UXUXD.r.O.Q.l.#.L.UXUXi.2X-X$.UXUXS.9.4.S.8.9.U.UXSX7.OX",
"UX/ &Xf.X.eXB.-.g.%X*.k.Q._ UXLXO.=Xe.#.,Xv.:.x.).1.r.Q.2.UXLX+.`.6.s.$Xv.#.s.@X@.b.).-.UXPXo.1X<.l./.u.;.A.3Xo.f.oX:.UX",
"K.;XY.h.UXsX^ mX$.jXCXn. X`.}.).[./.h.UXBX) xX@.UXDXx..XQ.U.U._.+Xk.UXjX} LX@.bXUXq._.W././.oXY.N.IXCX=.GXU cXUXx.[.I.'.",
"-.:X+Xm.UXZ. XFXn.P.UXp.>X).-.0.<X}.I.zXk.~.UXN.M.IXA.:XT.m.5.7X+Xm.DXm.).KXA.Z.KXh.9XoXf.1.;X-Xm.GXN.(.UXn.^.CXV.%X).9.",
"UX*.~.8.6.6. XKXC.B.7.q.T.2.UXUX2.).6.a.c. XmXP.x.,.i.L.7.UXBX;.H.h.r.y.^.UXJ.k.s.g.M.} UXGXq.Y.y.e.u.^.DXQ.j.g.<./.r.VX",
",X&.UXUXS.UX=.O.z.DXV.UXUX;.GX8X| DXUXf.UXw.O.g.UXG.AXHX3.fXLX~ UXUXF.GXt. .u.UXm.HXUX8.MXqX..UXDXP.ZXi.<.s.GXm.FXUX<.vX",
"x.G.UXF.-.g.(.UXP.T.+.v.UXS.M.P.P.UXG.7.b.XXUX~.h.u.V.UXB.F.l.!.UXF.8.t.OXDX].b.1.P.FXN.K.U.B.UXT.=.j./.KXQ.A.8.L.SXF.B.",
"8.k.x.=.UXQ.E.PXb.Z.UX5.y.J.] t.M.6.q.UXV.Q.UXk.J.SXe.x.j.+.g.f.h.4.PXI.{.ZXm.C.UX4.h.S...7.c.j.,.JXQ.}.UXs.R.KXq.s.z.7.",
"<X9.u.SXUX6X<.wX2.wXUXMXj.6.%X[.0.S.SXFXZX+.qX<.jXHXLXq.y..X(.f.r.AXUXwX} 6X<.yXUXKXq.;.,X].0.e.FXUX7X] kX$.>XUXDXh.0.+X",
"SXU.g.#.r.<.8X` uX..9.r.j.y.UXUXD.z.e.#.8.$X..sX*.5.6.f.f.UXUXz.z.,.0.:.3X&.uX8.*.p.g.l.UXUXb.N.y.u.<.%X=.cX3.3.5.w.S.HX",
"zXy.0.VXvXI.a.~.F.}.ZX7Xg.z.zXcXV.t.<XSX).l.R.m.|.cXaXa.z.uXSXs.8.6XnX[.9.!.x.[.cX3Xa.l.BXuXA.d.3XhX@X0.L.C.E.nXhXa.g.jX",
"f.k.2.J.UX5Xh.DX .:XUXU.r.u.u.i.<.N.!.LX5X5.IX,. XUXXX5.g.;.5.y.v.+XnXaXd.GX>.-XUX_.s.-.y.e.i.w.XXUX,Xs.HX=.zXNX[.d.8.3.",
"9./.cX=.n.:.-XUX].Z.a.&.dXL.g.Z.~.5X9.m.5.0XZX}.l.y.=.iXR.g.b.Y.qX~ _.| +XUX/.i.y.3.jXH.p.H.L.zX-.k.[ uXUXW.-.B.o.8X}.<.",
"OX,.PXUXk.NXe.f.w.MXD.UXUXr.-XoX$.UXHXg.gXa.f.e.CXv.UXUXa.&X2X6.UXUXx.xXx.g.6.LXZ.KXNXi.tX.Xy.SXLXc.HX@.l.c.AXc.UXJXg. X",
"HXX.8X).;.(.J.>XG.#X8.T.:X,.UXUX+.;XQ.0.+Xv.0XS.{.j.B.9X2.FXIX{ qXE.>.}.V.8XD.XX5.Y.6X:.JXJX@.8X`.1.[.S.4Xb.%X2.L.sX%.KX",
"U.{.(.2.cX6.+XUXI.y.xX>.~.g.-XT..XG.r.iXu.&XDX^.r.kX%.^.B.>XH.(.Q.%.cX0.#XHXQ.y.hX5.(.f. X.XA._.q.lX8.XXUXQ.d.kX>.U.U.].",
"1.oX$X~.UXsX3.LX-.sXDX'.7X1X2.j.$X X_.UX$X=.UX) kXUX^.=X<X5.x.=X*X(.UX&X<.PX{ hXUXB.6X>Xs.+.fX'.K.UXbX&.ZX .iXUX].].oX*.",
"UX} (.%.U.$XN.i.q.hXI.o.A.;.UXFXs.J.X.U.jXq.s.c.8X).$.M.%.UXVX9.Z.+.A.jX0.N.z.gXZ.#.M.O.UXUX8.m.<.R.7Xt.S.l.tXP.+.L.i.DX",
"|.q.ZXUX7.l.O.t.i.a.u.UXJX:.PX5X| UXUX7.k.+.g.%.g.i.HXUX7.bX8X&.PXUX:.f.3.,.d.1.c.KXUXr.tX=X;.UXPX7.r.t.>.r.i.d.UXUX) AX",
"A.L.aXyX%X8.@XUX'.X.*XtXwXc.x.S.L.9XGXU.,.*XUX X#.Y.lX0Xs./.v.L.fXsX$XX.;XUXQ.0.).dX4Xv.F.Y.c.6XdX'.y.].VX>XO._.hX6XG.h.",
"@Xl.%.1.c.6.zXUXBX7.g.,.&.:Xi.D.I.<.{ n.1.CXHXNXp.i.4.%._.i.K.].[ 0.u.0.LXKXNX;.k.q.@.[.Z.l.*X&.2.M.o.HXPXdXw.c.O.w.{.z.",
"e.I.UXUX|.u.M.,Xd.$.=XUXUX6.`.^.f.UXHX/.0.g.kX8.X.;XIXUX7.XX}.1.UXUX_.t.v.fXq.w.-XZXAXe.).Q.;.UXMX:X*.b.iXx.*.;XUXGX0.E.",
"VX3.mX.X+.b.y.=.x.A...%XkX7.UXMX%.lX X:.N.y.+.l.I.X.&XlX4.PXsX9.VX[.O.P.7.@.j.C.} =XHX=.JXDX,.SX2X! L.f. .j.P.[ #XVX6.UX",
"iX!.t.#.SXhX0.%X3.nXHX$.r.b.MXlXs.c.3.VXyX5.$X<.xXIXO.z.l.SXxXf.C.;.NXnX,.@X=.UXkX<.f.p.CXMXe.A.-.MXvX$.;X:.DXMX*.k.u.xX",
"@.1XxX=XGX Xg.DX,.-XGX[.kX3X^ #.xX=XW.KX*Xx.HX9.&XnX|.9XoX-.#.nX2X-XUXE.y.UX2.(.UXK.jX6Xo. .xX%XXXJX{.C.UX>.XXUX'.bX:X| ",
"lXi.B.) (.*.XXUX}.u.B.:.x.p.GXhXh.N.o.`.:.;XGX'.9.(.=.U.q.NXvXp.P.L D.8.=XLX:X<.W.*.v.3.ZXfXt.^.` '.=..XFX=X;.I.Q h.A.nX",
"cX3.KXkXt.JX5.8.w.CXA.wXKX8.hXUX) UXKX<.xXl.<.v.LX8.rXnXp.PXSX .BXHXm.xX9.7.g.GX7.NXPX2.UXMX%.vXxXx.vXw.e.u.SXZ.KXvX*.UX",
"F.w.HXrXl.[.G.qX^.1X8.9XHXf.+XI.g.PX3Xf.OXK.=XP.#Xz.cXSXm.E.).x.UXeX3./.J.3XH.6Xp.<XIXr.|.W.u.JXrX8.#XP.3XU.rX+.*XUXm.z.",
"0.R.^.[ :X6.{.UXG.:.%X+.F.(.-.j.S.XX[ XXw.[.UXA.d.].} W.Z.>.f.Z.I.` 2Xc.|.UXC.9.<XR ~.Q.1.w.W.XX] ,Xw.).UXB.5.5X .W.!.5.",
"D.e.7.kXKXNX%.UX+.cXKXjXj.-.b.l.x.o.cXUXyX6.UX$.uXUXbXq.s.z.V.7.h.aXKXwX2.KX*.fXUXfX9.*.M.d.h.:.nXPX4X5.UX2.8XLXZXg.<.V.",
"UXj.3.].%Xb.U.8.~.v.OX`.r.a.FXUXj.9.[.`.Q.n.5.'.m.+X}.:.g.UXJXm.<.].@XI.h.c.P.N.-XR.u.g.UXUXt.0._.{.E.N.q.L.^.+X(.6.j.UX"
};
