/* XPM */
static char *_e2a5cfc0b1f4429e0eab4f631b9fd265kYaNsErSUWn9UqR[] = {
/* columns rows colors chars-per-pixel */
"64 64 237 2 ",
"   c #4A3612",
".  c #384F3F",
"X  c #1C693F",
"o  c #3C6C2B",
"O  c #276D37",
"+  c #246E3B",
"@  c #2F7137",
"#  c #24723E",
"$  c #2A733B",
"%  c #397637",
"&  c #31773A",
"*  c #5A681D",
"=  c #5D751E",
"-  c #7F6D1A",
";  c #677A1B",
":  c #707519",
">  c #4A5530",
",  c #735926",
"<  c #64473D",
"1  c #78433B",
"2  c #5B6427",
"3  c #44722B",
"4  c #4C7D2E",
"5  c #557B27",
"6  c #577C27",
"7  c #476B31",
"8  c #487736",
"9  c #447B33",
"0  c #597638",
"q  c #696C28",
"w  c #637F33",
"e  c #627C3E",
"r  c #6A7F3E",
"t  c #737731",
"y  c #195843",
"u  c #2C5341",
"i  c #265845",
"p  c #3A5342",
"a  c #0D6B46",
"s  c #066548",
"d  c #006A4E",
"f  c #0B6B4A",
"g  c #136D44",
"h  c #1B6D43",
"j  c #196348",
"k  c #146C4A",
"l  c #1B6E49",
"z  c #177043",
"x  c #1C7142",
"c  c #006950",
"v  c #0D6C52",
"b  c #236D46",
"n  c #276D45",
"m  c #2A7146",
"M  c #277148",
"N  c #347346",
"B  c #3C7343",
"V  c #36704A",
"C  c #2C6C55",
"Z  c #347674",
"A  c #554D40",
"S  c #49564A",
"D  c #437643",
"F  c #4B7646",
"G  c #4B7A43",
"H  c #547B42",
"J  c #5C7D41",
"K  c #607E40",
"L  c #6C6C5B",
"P  c #53736B",
"I  c #447F74",
"U  c #786E6E",
"Y  c #883F3A",
"T  c #993C3A",
"R  c #A53A38",
"E  c #B63737",
"W  c #DF3E2D",
"Q  c #DD2F36",
"!  c #C83337",
"~  c #D53138",
"^  c #E13D2E",
"/  c #E52E36",
"(  c #E92E36",
")  c #E02D39",
"_  c #E23234",
"`  c #967B01",
"'  c #866D19",
"]  c #877C17",
"[  c #93751F",
"{  c #AA4D32",
"}  c #867A2A",
"|  c #937127",
" . c #D76A1B",
".. c #D07915",
"X. c #C14D24",
"o. c #DB442B",
"O. c #D15823",
"+. c #B93846",
"@. c #C73341",
"#. c #985347",
"$. c #974055",
"%. c #A54549",
"&. c #846449",
"*. c #79861A",
"=. c #76891E",
"-. c #7C8C1C",
";. c #7E911F",
":. c #53822E",
">. c #5C842A",
",. c #4E8130",
"<. c #58853A",
"1. c #638325",
"2. c #678626",
"3. c #6C8924",
"4. c #748C22",
"5. c #788D27",
"6. c #7B9021",
"7. c #79922A",
"8. c #67833A",
"9. c #79843E",
"0. c #438146",
"q. c #5E845C",
"w. c #578B5A",
"e. c #6B8241",
"r. c #688445",
"t. c #768744",
"y. c #799944",
"u. c #678653",
"i. c #4C836C",
"p. c #548264",
"a. c #568364",
"s. c #52867C",
"d. c #988C0C",
"f. c #9B920E",
"g. c #8C8710",
"h. c #868A16",
"j. c #8D9216",
"k. c #84921C",
"l. c #8B941A",
"z. c #8F981A",
"x. c #939515",
"c. c #9C9611",
"v. c #989817",
"b. c #929919",
"n. c #A58A04",
"m. c #A89609",
"M. c #A6990D",
"N. c #AC9B0B",
"B. c #B79406",
"V. c #B59B05",
"C. c #BD9D03",
"Z. c #B39D0A",
"A. c #A58913",
"S. c #B28C12",
"D. c #A79913",
"F. c #B79B16",
"G. c #ACA10F",
"H. c #BCA106",
"J. c #B4A40D",
"K. c #BBA40A",
"L. c #BBA80B",
"P. c #ABA211",
"I. c #BBA819",
"U. c #868C29",
"Y. c #879325",
"T. c #989529",
"R. c #84863C",
"E. c #8B8739",
"W. c #85893E",
"Q. c #938536",
"!. c #938B3B",
"~. c #9B8C3A",
"^. c #88953A",
"/. c #9B923B",
"(. c #AE812D",
"). c #B8892F",
"_. c #A49626",
"`. c #B6922B",
"'. c #A98C36",
"]. c #B18E31",
"[. c #BD8D31",
"{. c #A7933C",
"}. c #AB943B",
"|. c #B79436",
" X c #B29439",
".X c #BD9A3A",
"XX c #C79B07",
"oX c #D8990A",
"OX c #D48611",
"+X c #C19B16",
"@X c #C4A403",
"#X c #CAA501",
"$X c #CDAA02",
"%X c #C6A90A",
"&X c #C3AC0B",
"*X c #D2AD02",
"=X c #D8A806",
"-X c #CCB10C",
";X c #D4B104",
":X c #DBB402",
">X c #DEB803",
",X c #D8B30B",
"<X c #C3A618",
"1X c #D9AA15",
"2X c #E1B700",
"3X c #E4BB01",
"4X c #E8BE01",
"5X c #C2942C",
"6X c #C49232",
"7X c #CB9634",
"8X c #C39937",
"9X c #CC9A35",
"0X c #C49D3A",
"qX c #CC9E3A",
"wX c #D39D35",
"eX c #D69F39",
"rX c #D1A22B",
"tX c #C7A03B",
"yX c #CDA13A",
"uX c #DAA137",
"iX c #D4A23A",
"pX c #D9A238",
"aX c #DCA539",
"sX c #E3A537",
"dX c #E1A639",
"fX c #E5AA3A",
"gX c #EAAD3B",
"hX c #E9C000",
"jX c #828842",
"kX c #819E4D",
"lX c #D2A348",
"zX c #CCA253",
"xX c #2F768A",
"cX c #377982",
"vX c #698C89",
"bX c #719E8A",
"nX c #82868A",
/* pixels */
"d d d d d d d d d d d d d d d d d d d d d d d d d d d d d d d d d d d d d d d d d d d d d d d d d d d d d d d d d d d d d d d d ",
"d d d d d d d d d d d d d d d d d d d d d d d d d d d d d d d d d d d d d d d d d d d d d d d d d d d d d d d d d d d d d d d d ",
"d d d d d d d d d d d d d d d d d d d d d d d d d d d d d d d d d d d d d d d d d d d d d d d d d d d d d d d d d d d d d d d d ",
"d d d d d d d d d d d d d d d d d d d d d d d d d d d d d d d d d d d d d d d d d d d d d d d d d d d d d d d d d d d d d d d d ",
"d d d d d d d d d d d d d d d d d d d d d d d d d d d d d d d d d d d d d d d d d d d d d d d d d d d d d d d d d d d d d d d d ",
"d d d d d d d d d d d d d d d d d d d d d d d d d d d d d d d d d d d d d d d d d d d d d d d d d d d d d d d d d d d d d d d d ",
"d d d d d d d d d d d d d d d d d d d d d d d d d d d d d d d d d d d d d d d d d d d d d d d d d d d d d d d d d d d d d d d d ",
"d d d d d d d d d d d d d d d d d d d d d d d d d d d d d d d d d d d d d d d d d d d d d d d d d d d d d d d d d d d d d d d d ",
"d d d d d d d d d c d d d d d d d d d d d d d d d d d d d d d s d d d d d d d d d d d d d d d d d d d d d d d d d d d d d d d d ",
"d d d d d d d d d d d d d d d d d d d d d d d d d d d d d d d # # d d d d d d d d d d d d d d d d d d d d d d d d d d d d d d d ",
"d d d d d d d d d d d d d d d d d d d d d d d d d d d d d d @ ; ; @ d d d d d d d d d d d d d d d d d d d d d d d d d d d d d d ",
"d d d d d d d d d d d d d d d d d d d d d d d d d d d d d d X : ; g d d d d d d d d d d d d d d d d d d d d d d d d d d d d d d ",
"d d d d d d d d d d d d d d d d d d d d d d d d d d d d d # 5 ' - 5 h d d d c d d d d d d d d d d d d d d d d d d d d d d d d d ",
"d d d d d d d d d d d d d d d d d d d d d d d d d d d d f 5 g.{ X.h.5 d d d c c d d d d d d d d d d d d d d d d d d d d d d d d ",
"d d d d d d d d d d d d d d d d d d d d d d d d d d d s X d.*.2 2 -.d.g s d c c d d d d d d d d d d d d d d d d d d d d d d d d ",
"d d d d d d d d d d d d d d d d d d d d d k v d d . } -.6 *.m.o 3 N.*.5 -.- p c d c d d d d c d d d d d d d d d d d d d d d d d ",
"d d d d d d d d d d d d d d d d d d d d b ~.jXC d n B.9 j X >.- ' 5 X h 4 Z.b f F t.V c d k D n l d d d d d d d d d d d d d d d ",
"d d d d d d d d d d d d d d d c d d d c M iXdXjXf a j.+ > > o 2 * o > > O h.s V .XfXH c h '.9X8XkX& f d d d d d d d d d d d d d ",
"d d d d d d d d d d d d d d d a B B s c D eXqXr.d d q q 7 4 8.} } w 0 3 q q d V .XeXt.b E.wXaXsXwXR.d d d d d d d d d d d d d d ",
"d d d d d d d d d d d d d d k Q.9XqXjXb e.qXe.d d c i 7 ] ' | } | } [ [ 7 i d d F .X{.7 [.sXgXfXwXe d d d d d d d d d d d d d d ",
"d d d d d d d d d d d d d D '.wXeXzXaX.X9Xr.d d d d X $ q A.F.<X<XF.A.- 8 g a d c b 0X[.[.zXlXzX9X[.F c d d d d d d d d d d d d ",
"d d d d d d d d d d d d a !.wX5XdXfX| wX|.b d d g 3.K.H.S.F.XXXXoXXX+XA.C.J.x.% c c t.eXwXeXeXdX9XwXQ.a c d d d d d d d d d d d ",
"d d d d d d d d d d d d s ~.wXwXdX[.  (.F d d g c.*X*X..^ ^ o.W W ^ W ^ O.oX;X@X4 c k '.wX7X(.6X6XwX~.k d d d d d d d d d d d d ",
"d d d d d d d d d d d c l |.wXeXaXeX).~.s D e k.:X=XO._ / ~ ~ %.#.+.~ Q / W OX*X+XQ.% R.wXwX, , [.7XR.a d d d d d c d d d d d d ",
"d d d d d d d d d d d d b }.wX9X7XwX7XH N 8X`.@X$XXX^ ) #.L L xXi.P P &.@./  .*XK.[. XK iXeX7X9X6X9X}.k d d d d d d d d d d d d ",
"d d d d d d d d d d d d d t.uXwXeX6X6Xe 8. XF.N.M.XX+.#.cXp.i.cXa.q.i.cXL $...V.M.S.rXt '.wXeXuXwX9X8Xb d c d d d d d d d d d d ",
"d d d d d d d d d d d d d 0 wXwXuXeX).0 }.8.-.#X@X@Xr.xXi.p.q.i.u.q.a.i.s.Z T.C.@XN._.}.r 6X7X7X6X6XQ.k d d d d d d d d d d d d ",
"d d d d d d d d d d d d d m 6X7XwXfXeXE.yXN g : h.G.a.a.p.q.t.t.T.t.q.q.I i.W.m.g.5 M yXaXaXuX7X[.].n d d d d d d d d d d d d d ",
"d d d d d d d d d d d d d M |.9XwXgXgXgX}.f % = 3 D.u.q.u.^.I.>X,X-XT.u.q.q.U.k.3 = g /.gXgXaXwXdXqXl d d d d d d d d d d d d d ",
"d d d d d d d d d d d d d v ^.aXwXaXgXgXr.g M.n.m.T.i.q.^.,XhXhXhXhX>XT.q.I t.f.d.m.>.m tXaXaXgXgXaXN d d d d d d d d d d d d d ",
"d d d d d d d d d d d d d f .XgXfXdX8X{.k & Z.f.@X_.q.r.I.4X3X3X4X4XhX-Xt.u.u.#XN.m.k.f n W.gXgXaXaX9.d d d d d d d d d d d d d ",
"d d d d d d d d d d d d d r.fXiXgXaXG f d >.#Xc.m.^.i.9.K.K.P.=.2.z.K.G.^.a.a.Z.j.Z.M.g d k R.uXpXfXaXD d d d d d d d d d d d d ",
"d d d d d d d d d d d d k 0XgXpXuXW.d c g m.#X#XL.i.Z r.7.r.y.k f 0.9.<.Y.C cXl.#X#X$X4 d d N aXfXfXgX!.d d d d d d d d d d d d ",
"d d d d d d d d d d d d G fXgXaXuXK d d d 1.d.V.K.7.y.i.bXI vXy y Z vXvXbXw.y.z.@Xn.d.$ d f H qXaXfXgXyXl d d d d d d d d d d d ",
"d d d d d d d d d d d d r.gXgXgXgXyXr.d d ; = 2.H.w.nXS C u u y i X . y C U vXk.m.3 *.X N }.aXiXdXgXgXaXN d d d d d d d d d d d ",
"d d d d d d d d d d d d 9.iXgXgXgXgX0Xl g m.m.m.H.{ ! ~ 1 i u 1 R p . A E Q R F.@Xj.V.1.{.gXgXpXgXgXaX XJ d d d d d d d d d d d ",
"d d d d d d d d d d d n !.n H '.sXgX0Xl d -.*X$X$X../ ( / R y < Y y < Q ( ( ^ oX*X$XH.$ e.gX9XpXgX.XG M 9.d d d d d d d d d d d ",
"d d d d d d d d d d d H G d d H gXgX Xf d l.V.1.z.XXo./ / { u i y . < / ( / ..H.3.j.@X& f t.iXfXfXN d k r d d d d d d d d d d d ",
"d d d d d d d d d c d K M e.~.0XwX.X9.d d % h.o h J.oXW _ A u T E < i ! / ..*X2.X ; 4.a c d 0 pXgXjXf l 8.d c d d d d d d d d d ",
"d d d d d d d d d d f K k 8.sX.XM k f # :.3.V.m.*.K.2XoXX.Y ! ( / ~ T { ..2X*Xc.f.B.-.:.8 8.|.{.t.pX/.H J c d d d d d d d d d d ",
"d d d d d d d d d d d 8.M l 8X0Xn c $ K.3X3X*X%X#X$X*X:X:X..o./ / _  .=X>X;X*X$X$X$X2X2XXX6X.Xl M tXe 9.l d d d d d c d d d d d ",
"d d d d d d d d d d d D J f  XsX{.8.K.2X:X3X2X*X:X>X:X:XhXhX=X .O.OX3X4X2X*X>X:X*X:X4X:X:X+X8.m /./.e D d d d d d d d d d d d d ",
"d d d d d d c d d d d d K F e.}.aX6X+X2X2X:XH.x.-.1.:.2.6.P.>X:X,X3X%Xv.6.2.2.4.x.V.$X2X>X>XF.8XaXE.r.d d d d d d d d d d d d d ",
"d d d d d d d d d d d d k K D f U.F.=XL.=.9 O c d c c c d f 4 -X4Xl.z f d d d d d + % 2.Z.:XF.].'.9.f d d d d d d d d d d d d d ",
"d d d d d d d d d d d d c f 8.D *.m.C.h.j.4 d d d d d d d d ,.,X%Xv.d d d d d d d d % x.h.V.V.h.8 J c d d d d d d d d d d d d d ",
"d d d d d d d d d d d d d d k E.M.m.d.9 c.L.h d d d d d d d b.l.4 &Xx c d d d d d f P.G.4 *.N.f.8.H d d d d d d d d d d d d d d ",
"d d d d d d d d d d d d d d d G F.>XM.$ k.@Xh d d d d d d f v.,.a P.# d d d d d d f N.c.$ j.2Xx.B 9.f c d d d d d d d d d d d d ",
"d d d d d d d d d d d d c d d 0 `.%X2X%X#X4.d d d d d d d d l.,.a P.x c d d d d d s >.%X#X:X*X:.m 8XM c d d d d d d d d d d d d ",
"d d d d d d d d d d d f ,.b.b._.}.8 4.v.k.4.l.b.;.:.# d d c >.l.2.v.d d d X ,.=.k.l.3.;.b.6.,.% Y.7X_.:.f d d d d d d d d d d d ",
"d d d d d d d d d d d 2.K.J.>X1XiX5.g 2.;X:XXXn.@X$X$Xv.>.# g 4.k.& x ,.b.&X*XXX$X*X$X;X;.z 7.>X2X+XD.K.2.d d d d d d d d d d d ",
"d d d d d d d d d d d >.>.P.J.D.5X3XP.-X4X:XC.n.` ` B.;X;XH.v.-.6.b.&X:X:X>XB.d.#XB.;XhX;XG.hX,XP.N.J.>.>.d d d d d d d d d d d ",
"d d d d d d d d d d d f 6.4.k f % &XhX;X3X:X:X%Xx.K.@X@XB.n.$X>X$X$X#X@XC.C.n.x.@X$X;X>X;XhXL.,.f f 2.k.a d d d d d d d d d d d ",
"d d d d d d d d d d d d :.$ c d d % &XhX$X;X:X&X9 g ,.v.H.@XC.XXn.#X:XB.c.3.# 9 %X:X*X$XhXL.& d c c $ ,.d d d d d d d d d d d d ",
"d d d d d d d d d d d d f f d d d c & L.4X3X4X3X3.d c f $ :.4.k.*.4.>.% g d d 2.3X4X4X4XJ.N d d d d f d d d d d d d d d d d d d ",
"d d d d d d d d d d d d d d d d d d d X k.-X>XJ.@ d d d d c d d d d d d d d d # P.:X&Xk.x d d d d d d d d d d d d d d d d d d d ",
"d d d d d d d d d d d d d d d d d d d d d x & h d d d d d d d d d d d d d d d d g & x d d d d d d d d d d d d d d d d d d d d d ",
"d d d d d d d d d d d d d d d d d d d d d d d d d d d d d d d d d d d d d d d d d d d d d d d d d d d d d d d d d d d d d d d d ",
"d d d d d d d d d d d d d d d d d d d d d d d d d d d d d d d d d d d d d d d d d d d d d d d d d d d d d d d d d d d d d d d d ",
"d d d d d d d c d d d d d d d d d d d d d d d d d d d d d d d d d d d d d d d d d d d d d d d d d d d d d d d d d d d d d d d d ",
"d d d d d d d d d d d d d d d d d d d d d d d d d d d d d d d d d d d d d d d d d d d d d d d d d d d d d d d d d d d d d d d d ",
"d d d d d d d d d d d d d d d d d d d d d d c d d d d d d d d d d d d d d d d d d d d d d d d d d d d d d d d d d d d d d d d d ",
"d d d d d d d d d d d d d d d d d d d d d d d d d d d d d d d d d d d d d d d d d d d d d d d d d d d d d d d d d d d d d d d d ",
"d d d d d d d d d d d d d d d d d d d d d d d d d d d d d d d d d d d d d d d d d d d d d d d d d d d d d d d d d d d d d d d d ",
"d d d d d d d d d d d d d d d d d d d d d d d d d d d d d d d d d d d d d d d d d d d d d d d d d d d d d d d d d d d d d d d d "
};
