/* XPM */
static char *_ad2a954ecca44a9cea20d811f7f0436f1fJcYPa4uuq8iAT[] = {
/* columns rows colors chars-per-pixel */
"64 64 235 2 ",
"   c #020102",
".  c #0A0004",
"X  c #04020A",
"o  c #0A020A",
"O  c #0B0B0B",
"+  c #060A04",
"@  c #190300",
"#  c #120005",
"$  c #16120B",
"%  c #141414",
"&  c #1B1B1B",
"*  c #15161B",
"=  c #0A0C0D",
"-  c #210300",
";  c #271900",
":  c #241B1A",
">  c #3A1F00",
",  c #172119",
"<  c #332200",
"1  c #3C2C02",
"2  c #332B0F",
"3  c #1D1721",
"4  c #241A23",
"5  c #242424",
"6  c #2C2C2C",
"7  c #2A2727",
"8  c #31312F",
"9  c #343433",
"0  c #3C3C3C",
"q  c #373A36",
"w  c #302C30",
"e  c #431F00",
"r  c #452D00",
"t  c #443400",
"y  c #483702",
"u  c #533B04",
"i  c #473811",
"p  c #473931",
"a  c #584601",
"s  c #544A1B",
"d  c #4A4100",
"f  c #654A05",
"g  c #6B560B",
"h  c #765603",
"j  c #715C13",
"k  c #46413D",
"l  c #57492E",
"z  c #6A5925",
"x  c #766B3A",
"c  c #3A3941",
"v  c #3E4245",
"b  c #454545",
"n  c #4C4C4B",
"m  c #474847",
"M  c #52534E",
"N  c #545554",
"B  c #5C5C5B",
"V  c #565657",
"C  c #514B4E",
"Z  c #5A615A",
"A  c #65635C",
"S  c #756D53",
"D  c #72684A",
"F  c #5F5B62",
"G  c #605762",
"H  c #5F6561",
"J  c #646564",
"K  c #696A66",
"L  c #6C6C6B",
"P  c #686869",
"I  c #706C6B",
"U  c #71716F",
"Y  c #726E73",
"T  c #757574",
"R  c #797977",
"E  c #7C7C7B",
"W  c #7B7474",
"Q  c #6A736E",
"!  c #866301",
"~  c #986800",
"^  c #9E7E05",
"/  c #887314",
"(  c #957817",
")  c #A47C02",
"_  c #A77800",
"`  c #A26E00",
"'  c #817C77",
"]  c #7F827C",
"[  c #9D8800",
"{  c #A98701",
"}  c #B48C00",
"|  c #B48301",
" . c #AC9702",
".. c #BA9601",
"X. c #BE9906",
"o. c #BA9B15",
"O. c #BFA012",
"+. c #94813D",
"@. c #B19127",
"#. c #BDA836",
"$. c #C4990E",
"%. c #D3AD0F",
"&. c #E6B908",
"*. c #F0BD12",
"=. c #CE9E20",
"-. c #D8B639",
";. c #C3A72B",
":. c #EABC2A",
">. c #EEBD31",
",. c #EACA01",
"<. c #F4C907",
"1. c #EDC116",
"2. c #F9C617",
"3. c #F5D419",
"4. c #E8D014",
"5. c #DEC538",
"6. c #E9C824",
"7. c #F5C72A",
"8. c #EAD024",
"9. c #F1D727",
"0. c #E9C639",
"q. c #F6CA38",
"w. c #EBD43B",
"e. c #F7D636",
"r. c #86805E",
"t. c #BDA140",
"y. c #80807E",
"u. c #958F71",
"i. c #A29676",
"p. c #BDAB61",
"a. c #E3BA46",
"s. c #CBB552",
"d. c #DEC050",
"f. c #EACA49",
"g. c #EAD24C",
"h. c #F7D649",
"j. c #F6D557",
"k. c #F2CB4E",
"l. c #EED669",
"z. c #7C7880",
"x. c #7E8480",
"c. c #848484",
"v. c #8B8B8B",
"b. c #898986",
"n. c #95948A",
"m. c #939393",
"M. c #9C9C9B",
"N. c #9B9B95",
"B. c #918E95",
"V. c #A19B92",
"C. c #A2A29D",
"Z. c #AFAB95",
"A. c #B6AF97",
"S. c #9FA1A0",
"D. c #A2A2A2",
"F. c #A9A9A7",
"G. c #ABABAA",
"H. c #A4A8AB",
"J. c #B1B1AF",
"K. c #B9B6A8",
"L. c #B3B4B3",
"P. c #BCBCBB",
"I. c #B7B9B5",
"U. c #AFADB2",
"Y. c #C4B49A",
"T. c #BCC2BA",
"R. c #C2C3BF",
"E. c #D3CAAA",
"W. c #C2BDC4",
"Q. c #C4C4C3",
"!. c #CBCBCB",
"~. c #C9C8C6",
"^. c #D6D2CC",
"/. c #D5CFD2",
"(. c #CDD1D1",
"). c #D4D4D3",
"_. c #DADBD6",
"`. c #DBDBDB",
"'. c #D8D7D7",
"]. c #CFCFCD",
"[. c #E1DCD1",
"{. c #DDE7DF",
"}. c #E1E1DE",
"|. c #E9EBDD",
" X c #EDF3D7",
".X c #F8F2D3",
"XX c #DFE7EA",
"oX c #E4E4E3",
"OX c #E5EBE4",
"+X c #EBEBE6",
"@X c #E6EDEA",
"#X c #EDEDED",
"$X c #E9E6E8",
"%X c #F2EDED",
"&X c #F0E7EA",
"*X c #EDF3ED",
"=X c #E9F4E7",
"-X c #F1F1EE",
";X c #F9F4EC",
":X c #F4FBED",
">X c #FDFEEC",
",X c #F5F5E5",
"<X c #ECEDF3",
"1X c #E5EBF3",
"2X c #F2EDF2",
"3X c #F2EEFC",
"4X c #EDF3F3",
"5X c #EEFAF2",
"6X c #EDF5FC",
"7X c #E8F4F8",
"8X c gray94",
"9X c #F1F1F1",
"0X c #F3F3F3",
"qX c gray95",
"wX c #F0F2F2",
"eX c #F2F4F3",
"rX c gray96",
"tX c #F4F4F4",
"yX c #F6F6F6",
"uX c gray97",
"iX c #F5F7F6",
"pX c #F3F4F3",
"aX c #FAF6F4",
"sX c #F5FAF4",
"dX c #FBFCF5",
"fX c #F3F4FA",
"gX c #F5FBFC",
"hX c #FAFAFA",
"jX c #FDFDFD",
"kX c #FEFEFE",
"lX c white",
"zX c #FEFFFF",
"xX c #FEFFFE",
"cX c #FDFEFD",
"vX c #F9F5FC",
/* pixels */
"S.S.D.S.S.S.S.S.S.S.D.D.S.S.D.S.D.D.D.D.D.D.D.D.D.D.D.D.D.D.D.M.D.D.D.D.D.M.D.D.D.M.D.D.D.M.D.S.D.D.S.D.D.D.M.D.D.D.D.D.M.D.D.D.",
"xXxXxXxXcXcXxXcXxXxXxXxXxXxXxXxXxXxXxXxXxXxXxXxXjXxXjXjXxXxXxXxXxXjXxXxXxXxXxXxXxXxXxXxXxXxXxXxXxXxXjXjXxXxXxXxXxXxXxXxXxXxXxXjX",
"wXwXwX4XwX-XwXeX4XwX4XwXwXwXwXtXqXqXqXwX2XwXwXqX-X2X2X2X<X%XwX2XtX2X2X2X2XwXwX2X2X2XwX2XwX<XwX2X4X%X2X2X2X-XwX%X2X#X2XwX%X2X2X#X",
"tXeXeXeXeXeXeXtXtXeXeXeXtXeXeXeXqXtXqXqXtXtXtXqXiXiXiXiXaXiXiXiXtXtXiXiXiXiXtXiXiXiXiXaXiXaXiXaXiXtXiXiXiXqXiXiXtXiXiXiXiXiXtXiX",
"iXiXiXiXuXhXuXiXuXuXiXuXiXiXiXiXiXiXaXiXiXiXiXiXiXwXwXqXaXiXtXwX2XtXtXtXqXqXqXtXqXtXqXqXtXqXqXtXtXtXtXiXtXtXiXtXtXtXiXiXiXtXiXqX",
"4X#X<X#X*XwX<X#X4X*X-X<X4X#X4X*X#X2X<XwX%X2X#X2XeX%X<X2XwX2XwXtXtXtXtXtXwXwXqXtXwXwXqXwX2XwXwXwX2XwXwX-X2XwX2X-XwXwX#X%X<XwXqXqX",
"xXxXxXxXxXxXxXxXxXxXxXxXxXxXxXxXxXxXxXxXxXxXxXxXxXxXxXxXxXhXxXxXxXjXjXxXxXxXxXjXxXxXxXxXxXxXxXxXxXxXxXcXxXxXxXxXxXxXcXcXjXxXxXxX",
"m.v.v.v.v.v.v.v.b.v.v.v.v.B.v.v.v.v.v.v.v.v.v.v.c.v.m.N.m.v.v.v.m.m.m.m.M.M.m.v.v.B.m.m.v.m.v.B.m.m.B.m.m.m.B.m.m.m.m.B.v.m.m.m.",
"0 v.y.b.v.c.v.c.b.c.c.b.v.m.L E N.z.x.v.y.c.v.c.v.m.P 7 5 V W c.c.R B 7 & V B.v.c.' c.z.y.c.E v.z.L v.c.v.c.c.y.y.y.c.c.y.z.m.n ",
"E xXxXhXxXxXhXxXxXjXxXxXxXm.0 5 ~.'.uXxXxX!.hXxXoXN.m.'.hXcXxXxXwXxXxXhXoXM.m.).hXxX!.xXxXxX~.<X0 7 E xXjXhXhXjXxXuXxXxXxXxXxXL.",
"Y xXE B <XL.q ).jXn c.xXI.v.2XN.% U.H <XB.c.xXc.E !.xXhXtXwX#XwXjX#X2XiXiXxX'.c.R cXD.L jXT H.q B iXD.m.xXP.0 oX2Xm m.hXT P xXM.",
"R Q.  v.jXD.  ~.xXw T xXI.<XxXhXn G.N.& n ).L J.hXxXhXwXtXiXvXaX#XiXiXwXiXtXvXxXQ.P ).L * T Q.9 xXuXjXP.hXD.$ #XtX  B xXR.  m.G.",
"c.R   M.xXeX'.uX}.uXxXxXvXvXcXxXc.y.E !.wXP `.aXuX$XeXcXwX2XiXwXvXiXwXeXvXiXeXiXxX$XL !.$XR M.J xXeXxX#XxXxXxX<XwX'.$XxXW.  N F.",
"z.m.  D.cX$XU & & q m.~.!.(.Q.!.B F.o F.P `.uXhX2XhXeX<XiXiXwXtX%XwXwX%XwXaXiX#X<XxXtXP P.  m.P Q.).).~.'.L.b & & J ).xX].+ V H.",
"W #X% T `.O                     b.xX`.J `.xXwX<XqXwXwX2XwXjXxXxXxXjXjXhXwX#XiXiXhX$XcX#XJ ~.xXG.  +           X   +   I.F.  ].J.",
"T jXXXF.%     b M.D.P   6 !.L.).xXcXc.U.xX<XgXfXuXwXiXxXiX).F.b.v.G.'.iXxXiX2XtXwXtXwXxX'.K xXxXXXG.W.V   m S.N.B       B.}.xXM.",
"T 9 L M.    b.xXxXhXxXQ.& '.hXvXcXL.y.dX2XvXfX6X7XcXiXm.6           = q C.aXxX<X7XgX4X#XdXC.m.jXaXcXtX7 m.dXxXcXcXJ.+   L G.* v.",
"T m V q X P xXxX#XhXP.D.M.J xXwX@XP -XdX2XvX1X7XgX~.7 X   +               9 `.xX@X4X4XuX,XdXI `.2XcXN.L R.J.uX%XxXcXm.  & J 7 b.",
"U hX!.  O <X).F.#XvXxXV (.c.oXxXM.G.dX%XaX;X6XcXD.. . .     + 9 0 *     . . . I.cXsXfXeX+XdX/.z.xXcXR ].N -XtXxXI.W.xX6   H.xXN.",
"L xXU.+ M D.  6 m oXfXM `.U.oXwXQ 4XtXwX;X,XdXN.  # . o M T.=XoX/.hXT.Q . . # . K.dX2XuXxX#XvXz.!.xXM.dXN !.cXJ 6   T b.  c.xXM.",
"L xXS.  C % J.hXQ.M.!.Q.xXW.<XH.M.xXwXaX,XdXR.+     : R.xXxXjXb : ,X:XdX^.p o o $ ).xX#X6XvXjXW.v.wXP.cX~.R.L.C.hX!.% V + Y xXM.",
"P xXP.  * B iXiXhX!.eX'.#XoX$XR 1XeXiX=XqXtX6     8 #XuXtXdXD l x s >X*XdXuXC X   q cXgX@X6X3XjXY }.oX;X).cXQ.hXwXxXc.%   v.xXm.",
"T jXQ.    v.xX2XuX#X'.9 $XdX).T jX+X*X4XcXz.  + , XXcX@XsXE.r a.g.t i.sX4XsXsXq + + N.cX5XeXsXiXm.F.cXcXm J.-X*XwXjXQ.    m.xXD.",
"T %XE b   T xX#XeXhX'.5 oXxXN.G.sXsX4X4X1X*   + T.gX7XdX>Xs ) q.q.o.1 >XdXdXcX_.+   6 4X*X:X=XdX!.y.uXcX8 G.cX;X2XxXD.  6 R '.D.",
"E I.E ~.  9 Q.hXtXwXhXQ.oXxXR `.dX*X4XgXm.O   Q xX$X).~.A.u k.*.&.h.a i.^./.&XxXv.  X U.gX:X=X,XsXU $XaXP.qX-XtXhXoXN   N.F.v.L.",
"v.D.F xXJ o F.(.#XiXvXL B.tXT tXtXtX4XcXc   O K.S $ ; u ; f q.*.2.:.( - r e ; l ^.6 X V cX*X=X-XdXy.).Q.N +XcX-X`.G.5 6 xXB.Y I.",
"E (.% wXxXJ m '.#XiXP.  }.'.E xX<XuXdX'.X O M A.< s.0.w.;.h h.7.>.h.! { q.-.t.r r.' X & #XhX-XeXxXC.F.xX+ E xX#X#XJ M fXxXq D.P.",
"L xXM & c.I.L 5 L.$XD.  xXL.m.xXtXwXxXD.X   Z.E.g g.3.,.9.e.} ~ ~ _ :.:.&.*.f.j i.[.  X Q.xXwX#XxXG.n.cX% L tXI.q n L.m.0 7 xXm.",
"T jXuXb.B `.T 6 hXxXqXw M.L.D.xX%X&XdXy.    ^..Xa f.3.<.8.{ ) &.%...! 7.2.*.a.r E.$X4 O B.xXfXgXhX!.v.Q.5 ).aXxXV 0 #XL L }.jXD.",
"Y xX#XxXxXxX~.Q.xXwXwXwXwXv.R.cX-X,XcXV   5 OX.Xz ( e.3.$.{ e.6.e.6.X.` 2.:.@.u >X:Xk   Y xX<X4XdX`.E +X}.cX-XdX'.I.xXxXuXuXjXM.",
"T jXwXjXM.6 O * V wXxX#XxXc.!.cX:X*XxXb   9 5XdXA.y j.q.[ 0.0.o.[ f.0.^ :.j.g ' :XdXN   I jX*X5XsXoXL xX-XdXuX] 4 * & c.xX#XxXM.",
"L xXxXM.          6 #X2XxXE !.dX+XdXdXc   q sX=XaXi > $. .f.#.- - ( k._ $.! 1 .X=XsXK   V xX:X*XuX+XI uXtXcXV       X   L xXjXM.",
"T hX'.  * R m.L *   L xXxXE !.cX-X5XgXv . k dX X,Xs ! $...h./ @ @ u h.X._ e s jX=XdXJ + N gX*X5XsX+XT +XcXN.  + B b.c.7   L.uXS.",
"L iXJ w cXhXxXxXoX6   oXxXv.Q.xX*X5XgXm   9 :X>XK.1 j.1.} g.#.@ @ ( 0.} =.l.r Z.dXcXG   Z gXsXsXdX$XP dXcX8   Q.hXxXxXjXB w xXM.",
"L xXJ #XoXxX<X%XxXoXO D.xXc.W.hX-XsXgXH X 5 }.>Xx [ 9.3.{ 0.w. .[ w.0._ &.q.( z >X;Xb . ] dX:X+XiX`.R xX_.  P.cX#XuXhX}.cXP $XG.",
"R <XJ N 0 m #XQ.oXxXY E xXm.G.xX%X*XcXx.  O '.>Xd #.3.,.%.} 8.9.8.6.$.{ 1.1.-.r [.;X:   C.dX+XiXcX~.' xXG.m cX#X~.%XL q B F ~.F.",
"P xX9 B.xXJ M.F.xXxXG.B.xXU.v.xX2X#XcXU.X X U.[.d g.4.4.9.} ..:.f.X.) *.&.&.0.a Y./..   (.xX#XfXcXI.m.uXG.b.cXcXP.C.G '.P.& uXH.",
"R jXv.oXjXxXT c.xXxXD.M.jX(.' hXtXtXeXOX* X F A.d l.g.w.w.$.| ` ~ | { 0.e.0.l.g u.B.. 5 eXgXfX#XxXm.F.xXR.b.xXcXL.V xXxXxXE iXD.",
"L xXN.'.xXuXG.% ).$Xq !.xX#XK xX*X:X=XcXC o : Z.2 < a j j u e.<.*.q.f r j a < $ N.0   I iX*XgX4XxXc.!.uX-Xq Q.-X9 T xX#XiXv.xXM.",
"U xX`.L.iXvXxXb     N xXwXxXE !.dX XdXdXU.+   ] sXi.x ] l f q.<.*.q.a l S S V.,XH.    T.cX5X4X5XiXK %X-XcXy.    % uXjXuXQ.!.xXM.",
"T jXxXoXvXM.m #X' B.#XxX2XxXM.D.cX@XuXaX;X7 . . ^.>X>XdXcX1 @.7.*.-.< vXjXjX>X,X& X v xX4X6X*XcX!.E cXwX-XdXC.J oXT T hXoXvXxXM.",
"T c.v.xXxXc.* xXjXxXtX@XwXxX).T xX4X4X$XdXC.  + 6 dX|.*XcXn.1 g.k.f S cX1X3XjXn   X P.cX6XuX@XdXb.F.cXwXtXuXtXxXhXb n xXxXL.L M.",
"M T v.$XuXoXP.).hXwXhX-XvXtXjXI `.hXfX6XgXxXm     m cXgX=X>Xy +.p.1  X=XvXjXY X   P gX4X4X*XaXaXL +XdX%XdX%XqXuX`.P.'.#XjXM.R B ",
"P H.Y T c.~.$ O J xXoXwXwXwXcXG.B.xX@X7X1XgXOX%   X c XXsXdX[.; ; A.>X>X&XG o o 7 iXdXsX*X-XaXK.y.xX-XtX#XwXxXm.*   L.M.y.P H.c.",
"z.G.b 5 m.F B xXD.wXxXvXiXiXiX2XL OXgXgXgX1XcX(.X   X = c.(.xXK.V.dX_.b.5 o X 3 $XqX-X*XiXsXcX' ^.dXtX%XdXxXuXC.#Xc.0 L.* V c.G.",
"T xX6   + 9 uXuXm.N E oXaXiXiXxXN.M.gXXXgXvX-XcX'.& X X X   w B A 9 = X   X 5 @XcX%X:XeX7XgXW.W xX#XuX#XcXM.M c.#XhXn O     }.F.",
"L xXW.6 9 !.uXm.v.B.O & <XaX2X2XaXB @XgXvX&X>X|.dXOXP X X + .   +     X o T 5X5X=X:X-X-X6XgXF }.wX-XtXdXm   R m.c.$X#X0 % F.vXM.",
"R $XN.fXeXjX).#XxXxX#XO n xXtXtXjXI.Q cX&XaX;X;X,XeXxX].A : +     $ 6 Y '.cX5X5X,X-X-X*XgXB.B.xXqX%XcXb.  Q.xXxXtX!.hXjXuXD.'.F.",
"U hXS.N.xXhXxXhX2X@XxXB.  oXjXiX-XcXv.N.cX-X;X-X-X-XtXxXxXtX_.R.R.`.iXxXcXtX*XsX-XaX-XcX(.J xXcXtXwXjX& N xX#X2XwXxXxXhXQ.R xXM.",
"L cXP.N.Q.R P.hX#XjXaX(.  L.xX'.}.P.#XB Q.cX-XuXtX;XwXeX*X;XdXxXxXaX#X#X-XqX-XtXsX-XcXoXV _.).].}.iX#X  M.xX#XeXhX).R L.L.M.uXM.",
"U xXB.v.T W.P P.xX#XhX!.  L.#XQ.~.B #XQ.A Q.cX#XtXuXtX-XuXuX%X-XtX-XhXcX%X-XdX-X+XxX+XB I.+XT D.'.!.}.  F.xX#XuXoXB P.z.c.v.<XF.",
"T <Xm.L ~.v.tXG.hX#XjXL.  #X!.F.cXaX'.J.cXL G.xXuX+X-XuX-X-XuXqX;XtX#X-XdXtX#XtXcX`.J _.'.Q.cXaXQ.L.xXo T xX2XxXI.'.G.W.c.c.$XM.",
"T $XT Q.Q.N.).2XxXxXxX7 9 hXM.L dXxXJ.N P m.R v.cXcXtX-XtXtX-XtXeX-XuXuX-XtXcXdXG.A S.L H c.cXcXv.c.iXL X qXhXjXjX'.M.L.!.R ~.G.",
"R ).F.hXeXxXoXG.Q.!.m X '.~.U.N m E % A ).E oXN.B I.jXxXdX;X-XtXiX#X-XtXcXxX!.U y.%Xy.Q.b.$ U L 9 J.L.wX% 7 Q.`.U.(.xXtXxXW.P.G.",
"z.gXoXxXxXjXjX#Xm.m V oXxXxXcXhXK m Q.cXxXxX+XxX-Xn.R I.oXhXxXdXsXcXcX-X~.y.b.).uXuX-XxXcX).V n oXjXxXhXhXP b T '.xXxXxXxX`.xXJ.",
"b F.D.D.M.H.M.F.G.H.L.G.M.M.D.S.J.I.G.M.M.C.D.M.D.J.v.m 6 9 n J J V k 5 q y.J.G.F.C.D.M.C.G.I.L.H.D.F.M.F.L.F.L.U.M.D.S.F.S.L.F ",
"c.c.E E E c.z.R E E E E E E E E R R E E E E E ' E E y.b.v.E R W T I T ' c.y.W T T W R T R T W R T R R W R R R W R W W R R R R R ",
"xXxXxXxXxXxXxXjXxXxXxXxXxXxXxXxXxXxXxXxXcXcXxXxXcXcXcXcXxXxXdXxXxXdXdXxXxXxXdXxXcXxXcXcXcXcXcXxXxXxXxXxXhXxXxXxXxXxXxXxXxXxXjXxX",
"2X#X%X#XwX2X<X-X2XwX2X-XwX2XwXwX*X%X-X-X-X-X-X-X-X-X-X-X-X#X-X-X-X-X-X-X%X-XwXwX4X-X-X-X-X-X-X-X<XwX2XwX<XwX2XwX<XwXwXqXwX2XeX2X",
"eXiXtXiXwXiXiXuXiXqXtXtXqXtXtXtXeX;XtXtX;XeXwXtX-X-XtXtXtXtXtXwXqXtXaXeX-XqXtXiX;XqXeXeX;XeXwXwXqXtXeXtXtXtXtXtXtXtXqXtXtXtXiXiX",
"tXiXiXtXtXtXiXaXtXiXtXtXiXtXaXtXtXtX;XtXtXtXaXtXaXtXtX;X-XtXtXeX-XtXtX;XtXtXaXtXaXtXtXeXaXtXaXqXiXiXiXtXiXiXtXtXtXiXtXtXiXtXtXaX",
"wXqXqXqXwX2X2XwXtX2XtXeXwXqXwXeXtX-XeX-X;X-X-X-X-XwXwX*X-X-X;X-XtX-X-X-X-XeX-X-X-X-X-X;X-X-XwX-X2XqXqXqX2XtXqXqXeX2XtXeXwXwX2XeX",
"xXjXxXjXjXxXjXjXxXjXjXjXjXjXjXjXxXcXcXcXxXcXcXcXcXcXxXxXcXcXcXcXxXcXcXcXcXcXxXxXcXcXcXcXcXcXjXjXjXjXxXjXjXjXjXjXxXjXjXjXxXxXxXxX",
"G.G.G.F.G.G.G.G.G.G.G.G.G.G.F.G.F.F.F.F.G.F.G.F.G.F.F.G.G.F.F.G.F.F.G.G.G.F.F.G.G.F.F.G.G.F.G.G.G.G.G.G.G.G.G.G.G.G.G.G.G.G.F.G."
};
